# xmcd
#
# Track frame offsets:
#       150
#       2180
#       21350
#       40727
#       44417
#       61775
#       81632
#       100212
#       110150
#       122920
#       141555
#       161890
#       165845
#       184222
#       200740
#
# Disc length: 2930 seconds
#
# Revision: 54
# Processed by: cddbd v1.5.2PL0 Copyright (c) Steve Scherf et al.
# Submitted via: audiograbber 1.81.02
#
DISCID=db0b700f
DTITLE=The Corrs / Forgiven, Not Forgotten
DYEAR=1995
DGENRE=Pop-Folk
TTITLE0=Erin Shore (Traditional Intro)
TTITLE1=Forgiven Not Forgotten
TTITLE2=Heaven Knows
TTITLE3=Along With The Girls
TTITLE4=Someday
TTITLE5=Runaway
TTITLE6=The Right Time
TTITLE7=The Minstrel Boy
TTITLE8=Toss The Feathers
TTITLE9=Love To Love You
TTITLE10=Secret Life
TTITLE11=Carraroe Jig
TTITLE12=Closer
TTITLE13=Leave Me Alone
TTITLE14=Erin Shore
EXTD=Year: 1995\n\nThe Corrs: Andrea Corr (vocals, tin whistle); Sharon Corr (v
EXTD=ocals, violin); Jim Corr (vocals, guitar, keyboards, programming); Carolin
EXTD=e Corr (vocals, drums, Bodhran).\n\nAdditional personnel: Michael Thompson
EXTD= (guitar); David Foster (keyboards); Neil Steubenhaus, Tal Herzberg (bass)
EXTD=; Simon Phillips (drums); Noel Eccles, Des Reynolds (Celtic drums); Simon
EXTD=Franglen (programming).\n\nAll songs written by The Corrs except "Someday"
EXTD= (D. Foster/The Corrs). YEAR: 1995
EXTT0=Instrumental
EXTT1=
EXTT2=
EXTT3=Instrumental
EXTT4=
EXTT5=
EXTT6=
EXTT7=Instrumental
EXTT8=Instrumental
EXTT9=
EXTT10=
EXTT11=Instrumental
EXTT12=
EXTT13=
EXTT14=Instrumental
PLAYORDER=
.
